<svg width="68" height="22" viewBox="0 0 68 22" fill="none" xmlns="http://www.w3.org/2000/svg">
<path d="M1.833 6.11V8.71C1.833 9.633 1.859 10.088 1.937 10.582H0C0.0780001 10.14 0.104 9.594 0.104 8.736V1.885C0.104 1.17 0.0780001 0.793 0 0.195C0.533 0.221 0.858 0.234 1.651 0.234H5.291C6.11 0.234 6.526 0.208 7.072 0.143V1.898C6.604 1.833 6.123 1.807 5.291 1.807H1.833V4.563H4.615C5.421 4.563 5.876 4.537 6.383 4.472V6.201C5.902 6.136 5.408 6.11 4.615 6.11H1.833Z" fill="white"/>
<path d="M16.2312 8.918V10.673C15.7632 10.608 15.3082 10.582 14.3852 10.582H10.5372C9.80921 10.582 9.35421 10.595 8.88621 10.621C8.96421 10.14 8.99021 9.659 8.99021 8.905V2.158C8.99021 1.261 8.96421 0.793 8.88621 0.234H10.8492C10.7712 0.767 10.7452 1.196 10.7452 2.145V9.009H14.3852C15.2692 9.009 15.6852 8.983 16.2312 8.918Z" fill="white"/>
<path d="M27.1977 10.582H25.0657C24.9877 10.153 24.8447 9.594 24.7017 9.217L24.1817 7.8H20.0217L19.5017 9.217C19.2677 9.841 19.2157 10.036 19.1117 10.582H16.9797C17.1747 10.231 17.4347 9.646 17.6687 9.048L20.5287 1.547C20.7757 0.897 20.8797 0.572 20.9447 0.234H23.2067C23.2717 0.546 23.3497 0.754 23.6487 1.547L26.5347 9.048C26.8597 9.88 27.0157 10.244 27.1977 10.582ZM23.7137 6.305L22.3227 2.457C22.2707 2.314 22.2317 2.158 22.0887 1.729C21.8807 2.34 21.8807 2.34 21.8417 2.457L20.4897 6.305H23.7137Z" fill="white"/>
<path d="M28.4408 7.553L30.3127 7.358C30.3647 7.943 30.4428 8.203 30.6768 8.502C31.0538 8.996 31.7297 9.269 32.5747 9.269C33.8747 9.269 34.6548 8.684 34.6548 7.709C34.6548 7.176 34.4077 6.734 34.0047 6.513C33.6147 6.305 33.5367 6.292 31.7428 5.876C30.7677 5.655 30.2477 5.447 29.7797 5.083C29.1167 4.563 28.7787 3.848 28.7787 2.977C28.7787 1.17 30.2347 0 32.4707 0C33.9527 0 35.0707 0.455 35.7077 1.313C36.0327 1.742 36.1887 2.132 36.3447 2.821L34.4857 3.042C34.4077 2.6 34.3167 2.379 34.0957 2.119C33.7577 1.716 33.1857 1.495 32.4707 1.495C31.3397 1.495 30.5728 2.067 30.5728 2.912C30.5728 3.458 30.8587 3.835 31.4567 4.095C31.7427 4.212 31.8467 4.238 33.2897 4.563C34.3167 4.784 34.9407 5.031 35.4087 5.356C36.1497 5.902 36.4878 6.617 36.4878 7.592C36.4878 8.515 36.2018 9.269 35.6688 9.802C34.9798 10.465 33.9527 10.79 32.5617 10.79C31.4957 10.79 30.4557 10.53 29.8317 10.114C29.3117 9.763 28.9347 9.269 28.6877 8.632C28.5707 8.333 28.5188 8.086 28.4408 7.553Z" fill="white"/>
<path d="M45.5467 0.234H47.4837C47.4057 0.767 47.3797 1.157 47.3797 1.898V8.905C47.3797 9.659 47.4057 10.036 47.4837 10.582H45.5467C45.6247 10.075 45.6507 9.672 45.6507 8.905V5.967H40.4247V8.905C40.4247 9.659 40.4507 10.049 40.5287 10.582H38.5917C38.6697 10.088 38.6957 9.672 38.6957 8.905V1.911C38.6957 1.144 38.6697 0.741 38.5917 0.234H40.5287C40.4507 0.78 40.4247 1.209 40.4247 1.898V4.407H45.6507V1.911C45.6507 1.17 45.6247 0.702 45.5467 0.234Z" fill="white"/>
<path d="M64.1391 10.582H62.0071C61.9291 10.153 61.7861 9.594 61.6431 9.217L61.1231 7.8H56.9631L56.4431 9.217C56.2091 9.841 56.1571 10.036 56.0531 10.582H53.9211C54.1161 10.231 54.3761 9.646 54.6101 9.048L57.4701 1.547C57.7171 0.897 57.8211 0.572 57.8861 0.234H60.1481C60.2131 0.546 60.2911 0.754 60.5901 1.547L63.4761 9.048C63.8011 9.88 63.9571 10.244 64.1391 10.582ZM60.6551 6.305L59.2641 2.457C59.2121 2.314 59.1731 2.158 59.0301 1.729C58.8221 2.34 58.8221 2.34 58.7831 2.457L57.4311 6.305H60.6551Z" fill="#00A6B2"/>
<path d="M65.7201 0.234H67.6961C67.6181 0.728 67.5921 1.131 67.5921 1.911V8.905C67.5921 9.672 67.6181 10.088 67.6961 10.582H65.7201C65.7981 10.088 65.8241 9.672 65.8241 8.905V1.911C65.8241 1.105 65.7981 0.754 65.7201 0.234Z" fill="#00A6B2"/>
<path d="M7.077 16.426V13.5169H7.41223V14.5908H7.44064C7.46526 14.5529 7.49935 14.5046 7.54291 14.4459C7.58742 14.3862 7.65086 14.3332 7.73325 14.2868C7.81658 14.2394 7.92927 14.2158 8.07132 14.2158C8.25503 14.2158 8.41696 14.2617 8.55711 14.3536C8.69727 14.4454 8.80664 14.5756 8.88524 14.7442C8.96384 14.9127 9.00314 15.1116 9.00314 15.3408C9.00314 15.5718 8.96384 15.7721 8.88524 15.9416C8.80664 16.1102 8.69774 16.2409 8.55853 16.3337C8.41933 16.4255 8.25882 16.4715 8.077 16.4715C7.93685 16.4715 7.82463 16.4483 7.74035 16.4019C7.65607 16.3545 7.5912 16.301 7.54575 16.2413C7.5003 16.1807 7.46526 16.1305 7.44064 16.0908H7.40086V16.426H7.077ZM7.40655 15.3351C7.40655 15.4999 7.43069 15.6452 7.47899 15.7712C7.52728 15.8962 7.59783 15.9942 7.69064 16.0652C7.78344 16.1353 7.89708 16.1703 8.03155 16.1703C8.1717 16.1703 8.28865 16.1334 8.3824 16.0595C8.47709 15.9847 8.54812 15.8843 8.59547 15.7584C8.64376 15.6315 8.66791 15.4904 8.66791 15.3351C8.66791 15.1817 8.64423 15.0434 8.59689 14.9203C8.55048 14.7963 8.47994 14.6983 8.38524 14.6263C8.29149 14.5534 8.17359 14.5169 8.03155 14.5169C7.89518 14.5169 7.7806 14.5515 7.6878 14.6206C7.59499 14.6888 7.52492 14.7844 7.47757 14.9075C7.43022 15.0297 7.40655 15.1722 7.40655 15.3351Z" fill="white"/>
<path d="M9.6537 17.2442C9.59689 17.2442 9.54622 17.2394 9.50172 17.23C9.45721 17.2215 9.42643 17.2129 9.40939 17.2044L9.49461 16.909C9.57605 16.9298 9.64802 16.9374 9.71052 16.9317C9.77302 16.926 9.82842 16.8981 9.87672 16.8479C9.92596 16.7986 9.97094 16.7186 10.0117 16.6078L10.0742 16.4374L9.26734 14.2442H9.63098L10.2333 15.9828H10.256L10.8583 14.2442H11.2219L10.2958 16.7442C10.2541 16.8569 10.2025 16.9501 10.1409 17.024C10.0794 17.0988 10.0079 17.1542 9.92643 17.1902C9.84594 17.2262 9.75503 17.2442 9.6537 17.2442Z" fill="white"/>
<path d="M24.0408 14.1477H25.0012V19.3796H24.0408V14.1477ZM26.3732 15.5593H27.4849L26.1269 17.3759L27.527 19.3781H26.3873L25.0495 17.4383L26.3732 15.5593Z" fill="white"/>
<path d="M30.6608 15.5593H31.6212V19.3781H30.6608V18.8094C30.4067 19.2145 30.0029 19.4466 29.4946 19.4466C28.4578 19.4466 27.725 18.638 27.725 17.4725C27.725 16.3071 28.4453 15.4907 29.5024 15.4907C30.0106 15.4907 30.4145 15.7026 30.6624 16.1077V15.5593H30.6608ZM29.6941 18.624C30.3053 18.624 30.6748 18.1238 30.6748 17.4725C30.6748 16.8213 30.3038 16.3134 29.6864 16.3134C29.0689 16.3134 28.7197 16.7995 28.7197 17.4725C28.7197 18.1456 29.083 18.624 29.6941 18.624Z" fill="white"/>
<path d="M33.6247 19.3781H32.6643V15.5593H33.6247V16.142C33.8242 15.7447 34.1189 15.4907 34.4962 15.4907C34.6475 15.4907 34.7566 15.5312 34.8112 15.5873V16.6156C34.7145 16.5611 34.5711 16.4925 34.3715 16.4925C33.9396 16.4925 33.6231 16.7527 33.6231 17.4523V19.3796L33.6247 19.3781Z" fill="white"/>
<path d="M38.1321 15.5593H39.0925V19.3781H38.1321V18.8094C37.8779 19.2145 37.4741 19.4466 36.9659 19.4466C35.9291 19.4466 35.1963 18.638 35.1963 17.4725C35.1963 16.3071 35.9166 15.4907 36.9737 15.4907C37.4819 15.4907 37.8857 15.7026 38.1336 16.1077V15.5593H38.1321ZM37.1639 18.624C37.775 18.624 38.1446 18.1238 38.1446 17.4725C38.1446 16.8213 37.7735 16.3134 37.1561 16.3134C36.5387 16.3134 36.1894 16.7995 36.1894 17.4725C36.1894 18.1456 36.5527 18.624 37.1639 18.624Z" fill="white"/>
<path d="M43.8743 17.4648C43.8743 18.6162 43.0168 19.4466 41.8849 19.4466C40.753 19.4466 39.8954 18.6177 39.8954 17.4585C39.8954 16.2993 40.767 15.4907 41.9051 15.4907C43.0433 15.4907 43.8743 16.3071 43.8743 17.4648ZM40.8886 17.4648C40.8886 18.1784 41.3142 18.6162 41.8833 18.6162C42.4524 18.6162 42.878 18.1768 42.878 17.4648C42.878 16.7527 42.4524 16.3196 41.8895 16.3196C41.3267 16.3196 40.8886 16.759 40.8886 17.4648Z" fill="white"/>
<path d="M44.3124 18.8919C44.3124 18.5834 44.5525 18.3373 44.8612 18.3373C45.1699 18.3373 45.4163 18.5834 45.4163 18.8919C45.4163 19.2004 45.1762 19.4466 44.8612 19.4466C44.5463 19.4466 44.3124 19.2004 44.3124 18.8919Z" fill="white"/>
<path d="M48.7918 14.1477H49.7522V19.3796H48.7918V18.8109C48.5376 19.216 48.1338 19.4482 47.6255 19.4482C46.5887 19.4482 45.8559 18.6395 45.8559 17.4741C45.8559 16.3087 46.5763 15.4923 47.6333 15.4923C48.1416 15.4923 48.5454 15.7042 48.7933 16.1092V14.1477H48.7918ZM47.8251 18.624C48.4363 18.624 48.8058 18.1238 48.8058 17.4725C48.8058 16.8213 48.4347 16.3134 47.8173 16.3134C47.1999 16.3134 46.8507 16.7995 46.8507 17.4725C46.8507 18.1456 47.2139 18.624 47.8251 18.624Z" fill="white"/>
<path d="M50.6923 14.6338C50.6923 14.305 50.9527 14.0448 51.2754 14.0448C51.5982 14.0448 51.8648 14.305 51.8648 14.6338C51.8648 14.9625 51.6044 15.2227 51.2754 15.2227C50.9465 15.2227 50.6923 14.9625 50.6923 14.6338ZM50.7952 15.5593H51.7556V19.3781H50.7952V15.5593Z" fill="white"/>
<path d="M53.6765 19.6118C53.7934 19.9608 54.1364 20.1602 54.5963 20.1602C55.1108 20.1602 55.5225 19.8579 55.5225 19.1459V18.666C55.2761 19.0774 54.8707 19.3033 54.3422 19.3033C53.2929 19.3033 52.5586 18.5087 52.5586 17.3837C52.5586 16.2588 53.2789 15.4907 54.3282 15.4907C54.863 15.4907 55.2746 15.7244 55.5225 16.142V15.5593H56.4829V19.1459C56.4829 20.1742 55.8717 20.9969 54.6104 20.9969C53.5751 20.9969 52.8267 20.4625 52.6693 19.6118H53.678H53.6765ZM54.548 18.4728C55.1654 18.4728 55.5365 18.007 55.5365 17.39C55.5365 16.773 55.1654 16.3134 54.5558 16.3134C53.9462 16.3134 53.5814 16.7652 53.5814 17.39C53.5814 18.0148 53.9384 18.4728 54.5496 18.4728H54.548Z" fill="white"/>
<path d="M57.4012 14.6338C57.4012 14.305 57.6616 14.0448 57.9843 14.0448C58.307 14.0448 58.5737 14.305 58.5737 14.6338C58.5737 14.9625 58.3133 15.2227 57.9843 15.2227C57.6553 15.2227 57.4012 14.9625 57.4012 14.6338ZM57.5041 15.5593H58.4645V19.3781H57.5041V15.5593Z" fill="white"/>
<path d="M59.5824 16.3414H59.1303V15.5593H59.5824V14.6197H60.5506V15.5593H61.4081V16.3414H60.5506V18.1783C60.5506 18.4806 60.6535 18.6177 60.9482 18.6177C61.0994 18.6177 61.2772 18.5632 61.4144 18.4806V19.283C61.2288 19.3921 60.9747 19.4482 60.7081 19.4482C59.9675 19.4482 59.5824 19.0571 59.5824 18.2968V16.3414Z" fill="white"/>
<path d="M64.7758 15.5593H65.7362V19.3781H64.7758V18.8094C64.5217 19.2145 64.1179 19.4466 63.6096 19.4466C62.5728 19.4466 61.84 18.638 61.84 17.4725C61.84 16.3071 62.5603 15.4907 63.6174 15.4907C64.1257 15.4907 64.5295 15.7026 64.7774 16.1077V15.5593H64.7758ZM63.8092 18.624C64.4203 18.624 64.7898 18.1238 64.7898 17.4725C64.7898 16.8213 64.4188 16.3134 63.8014 16.3134C63.184 16.3134 62.8347 16.7995 62.8347 17.4725C62.8347 18.1456 63.198 18.624 63.8092 18.624Z" fill="white"/>
<path d="M66.7793 14.1477H67.7475V19.3796H66.7793V14.1477Z" fill="white"/>
<path d="M20.5967 12.426H23.8646L20.3379 16.6359H16.9671L20.5967 12.426Z" fill="#C5A900"/>
<path d="M20.5967 21.483H23.8646L20.3379 17.2731H16.9671L20.5967 21.483Z" fill="#C5A900"/>
<path d="M16.3544 12.426H19.6207L16.0955 16.6359H12.7247L16.3544 12.426Z" fill="#00A6B2"/>
<path d="M16.3544 21.483H19.6207L16.0955 17.2731H12.7247L16.3544 21.483Z" fill="#00A6B2"/>
</svg>
