<svg width="32" height="32" viewBox="0 0 32 32" fill="none" xmlns="http://www.w3.org/2000/svg">
<path d="M30.4068 0.034818C30.3828 0.0766832 29.2357 2.7421 28.8133 3.74687C28.6645 4.10505 28.2709 5.01678 27.9493 5.77035C26.6486 8.79395 26.3894 9.40332 26.3607 9.51031L26.3367 9.6173L27.455 9.46379C28.0693 9.38006 28.6933 9.29633 28.8421 9.27772L29.1157 9.24981L28.9525 9.93826C28.5877 11.4733 28.0549 13.6596 28.0261 13.7387C27.9973 13.8038 27.9589 13.7852 27.7718 13.5991L27.5462 13.3759L27.623 13.0502C27.671 12.8456 27.6998 12.4967 27.6998 12.1199C27.7046 11.3942 27.599 10.9709 27.2822 10.3988L27.0758 10.0266L26.7542 10.0406C26.5766 10.0453 26.3607 10.0685 26.2695 10.0871L26.1111 10.1197L26.3942 10.529C26.7878 11.1012 26.8934 11.4454 26.8934 12.1664C26.8886 12.5293 26.8598 12.8502 26.8022 13.0828C26.759 13.2828 26.7302 13.4642 26.7494 13.4922C26.7686 13.5247 26.495 13.5387 25.9383 13.5387C25.1223 13.5387 25.0935 13.534 24.9207 13.4224C24.5464 13.1758 24.1384 13.3759 24.1336 13.8085C24.1336 14.1899 24.4936 14.3946 24.8536 14.2132C24.9255 14.176 24.9975 14.1248 25.0071 14.1015C25.0119 14.0783 25.4583 14.0411 26.0055 14.0224L26.9894 13.9899L27.2966 14.3015C28.0597 15.0598 28.3717 15.725 28.3765 16.5623C28.3813 17.2368 28.1413 18.0089 27.8581 18.2415C27.7766 18.3113 27.3542 18.7672 26.9222 19.2556L26.1303 20.1441H24.2248H22.3193L21.6186 19.4324C21.2346 19.0463 20.8842 18.6741 20.841 18.6137C20.7882 18.5392 20.7594 18.4043 20.7546 18.209C20.7498 17.9671 20.7306 17.8973 20.6298 17.795C20.1883 17.3391 19.5211 17.5298 19.4059 18.1438C19.3387 18.5113 19.7227 18.9114 20.1163 18.8788C20.2939 18.8602 20.3179 18.8788 20.817 19.3765C21.1002 19.6556 21.4554 20.0185 21.609 20.172L21.8826 20.4604L21.249 21.1953C20.2555 22.3536 20.3131 22.3025 20.0155 22.335C19.4011 22.4048 19.1803 23.0932 19.6459 23.4886C20.0251 23.8096 20.6346 23.591 20.745 23.0979C20.7594 23.0188 20.7546 22.8886 20.7306 22.8095C20.6874 22.6606 20.7066 22.6327 21.3834 21.8326C21.7674 21.3768 22.1513 20.9349 22.2281 20.8511L22.3769 20.7023H24.2392H26.1015L26.4134 21.307C26.687 21.8373 26.7206 21.935 26.6966 22.0931C26.6342 22.4653 26.951 22.749 27.3206 22.6513C27.5174 22.6002 27.6854 22.3862 27.6854 22.1908C27.6854 22.0047 27.5174 21.7861 27.3254 21.7163C27.1622 21.6605 27.1238 21.614 26.8646 21.0791C26.711 20.7627 26.5814 20.4836 26.5814 20.465C26.5814 20.4418 26.8694 20.0976 27.2198 19.6975C27.5654 19.2975 27.8821 18.93 27.9205 18.8788C27.9829 18.7997 28.0117 18.8742 28.2661 19.6836C28.6117 20.7907 28.6645 21.1116 28.6309 21.7861C28.5781 22.9118 28.0789 23.8189 27.119 24.5492L26.8694 24.7446L26.2023 24.3538L25.5351 23.9585L24.292 23.9491L23.0537 23.9352L22.8041 23.3537C22.6697 23.0328 22.5305 22.7351 22.5065 22.6885C22.4249 22.5676 22.1849 22.5862 22.0937 22.7211C22.0217 22.8234 22.0361 22.8653 22.3097 23.4933C22.4825 23.8933 22.5833 24.1771 22.5593 24.2096C22.5353 24.2376 22.1561 24.6841 21.7146 25.2051L20.9082 26.1447H19.5691H18.23V15.7761V5.41217L18.3788 5.23075C18.5804 4.97956 19.022 4.67255 19.3339 4.55626C20.6298 4.08179 22.1033 4.58417 22.7081 5.70988C22.8089 5.89595 22.9049 6.04945 22.9289 6.04945C22.9481 6.04945 23.0009 6.07736 23.0489 6.10992C23.1305 6.1704 23.1257 6.20296 22.9337 6.76116C22.7417 7.30541 22.7129 7.35658 22.5401 7.46822L22.3529 7.58916L21.7674 7.52869L21.1818 7.46356L21.1674 6.96118C21.153 6.47741 21.1578 6.45415 21.273 6.35181C21.6474 6.01689 21.3498 5.39821 20.8458 5.46334C20.4139 5.51451 20.2219 6.0448 20.5338 6.32855C20.6778 6.4588 20.6778 6.4588 20.6778 6.9984V7.53799L20.4523 7.73336C19.7371 8.35204 19.4299 8.673 19.4299 8.79395C19.4299 8.85907 19.4539 8.93815 19.4875 8.97071C19.6411 9.11957 19.8139 9.01258 20.6538 8.23109L20.9898 7.91943L21.681 8.00316C22.0601 8.04968 22.3865 8.11015 22.4009 8.13341C22.4537 8.21249 22.6361 8.28226 22.7897 8.28226C22.8953 8.28226 22.9865 8.2404 23.0873 8.14271C23.2217 8.00781 23.2313 7.9799 23.2073 7.75662C23.1881 7.55195 23.2169 7.42635 23.4041 6.91001C23.524 6.57509 23.6296 6.29599 23.6392 6.28669C23.644 6.27738 23.7736 6.32855 23.9272 6.40298C24.3112 6.58905 24.8344 7.10538 25.0551 7.51938C25.2999 7.96595 25.3815 8.33808 25.3815 8.98002V9.51496L24.9351 9.76615C23.8744 10.3616 22.6169 11.0407 22.5737 11.0407C22.5497 11.0407 22.2281 10.8593 21.8682 10.6314C21.3258 10.3011 21.2058 10.2081 21.2058 10.1197C21.2058 9.48705 20.3899 9.18469 19.9627 9.65451C19.8379 9.79406 19.8139 9.85918 19.8139 10.0546C19.8139 10.436 19.9723 10.65 20.3275 10.7523C20.5003 10.7988 20.5626 10.7988 20.7306 10.7337L20.9274 10.6593L21.609 11.0686L22.2857 11.478L22.3097 12.4874C22.3289 13.3154 22.3481 13.5015 22.4057 13.5387C22.5209 13.6084 22.6361 13.5945 22.7417 13.4922C22.8329 13.4038 22.8377 13.3386 22.8377 12.4502V11.5012L23.812 10.9756C25.2663 10.1895 25.5687 10.008 25.6455 9.86384C25.6839 9.79406 25.8231 9.47775 25.9575 9.16143C26.1783 8.64509 26.2023 8.56136 26.1783 8.34273C26.1015 7.67754 25.6887 6.8635 25.1751 6.35646C24.7912 5.97502 24.4264 5.74709 23.9128 5.56102C23.5096 5.41217 23.4952 5.40287 23.3081 5.11446C22.1753 3.37938 19.4395 3.05842 17.966 4.49114C17.7836 4.6679 17.5821 4.91444 17.5245 5.03073L17.4141 5.24471V17.874V30.5034L17.5629 30.7174C17.8892 31.1965 18.6908 31.7082 19.4059 31.8942C19.8571 32.0105 20.6826 32.0338 21.1626 31.9361C22.3433 31.7082 23.3801 30.922 23.7784 29.9638C23.836 29.8242 23.8888 29.7638 23.9848 29.7452C24.316 29.68 24.9591 29.4242 25.3095 29.2288C25.8375 28.9218 26.6774 28.1124 26.951 27.6333C27.3206 26.996 27.5366 26.0982 27.4598 25.5075C27.4454 25.3586 27.4502 25.2609 27.479 25.2609C27.5894 25.2609 28.2277 24.6748 28.5061 24.3213C29.0965 23.5631 29.4036 22.7444 29.4468 21.7954C29.4804 21.0558 29.3988 20.6092 29.0005 19.437L28.6885 18.5067L28.8805 18.0369C29.1205 17.4321 29.1877 17.1158 29.1877 16.5576C29.1877 15.9901 29.0821 15.5435 28.7989 14.9714L28.5829 14.5155L30.1476 11.4826C31.0067 9.81267 31.7747 8.30552 31.8563 8.12876L32.0003 7.81709H31.8851C31.7939 7.81709 31.7267 7.89152 31.5347 8.19853C31.0019 9.06375 29.7876 11.1803 29.1973 12.2734C29.0965 12.4595 29.0101 12.6037 29.0005 12.5944C28.9909 12.5897 29.2213 11.6733 29.5044 10.5616C29.7924 9.44984 30.018 8.5288 30.0084 8.5195C29.9844 8.49624 29.2501 8.57067 28.2421 8.70557C27.8533 8.75673 27.5222 8.7893 27.5126 8.78464C27.503 8.77534 27.8725 7.67754 28.3333 6.35181C28.7893 5.02143 29.4372 3.10493 29.7732 2.09552C30.1044 1.0861 30.3972 0.202279 30.4212 0.127852C30.4596 0.0115596 30.4548 -0.039609 30.4068 0.034818ZM26.0103 24.8237L26.6198 25.1818L26.6534 25.4889C26.711 26.0843 26.5286 26.8006 26.1879 27.317C25.6551 28.1217 25.0119 28.6055 24.0664 28.9172C23.7496 29.0241 23.6536 29.0288 23.6536 28.9311C23.6536 28.9032 23.5528 28.6334 23.4281 28.3264L23.2073 27.7682L23.5384 27.4426C23.8408 27.1449 23.8792 27.1216 24.0136 27.1542C24.4216 27.2472 24.6616 27.089 24.6616 26.7216C24.6616 26.1866 23.956 26.0424 23.7112 26.5215C23.6584 26.6192 23.4568 26.8472 23.2553 27.0286L22.8905 27.3588L22.1417 26.8751L21.393 26.3866L21.7626 25.954C21.969 25.7121 22.3385 25.2795 22.5881 24.9911L23.0393 24.4701H24.22H25.4007L26.0103 24.8237ZM21.7722 27.2425C22.2377 27.5403 22.6265 27.7868 22.6361 27.7961C22.6457 27.8007 22.7753 28.1403 22.9289 28.545L23.2121 29.2846L22.9913 29.7033C22.4729 30.6848 21.5514 31.2151 20.3659 31.2151C19.6363 31.2151 18.9404 30.9639 18.4844 30.5313L18.23 30.2941V28.4985V26.7029H19.5739H20.9178L21.7722 27.2425Z" fill="#00A6B2"/>
<path d="M12.2682 3.6306C11.2843 3.79341 10.3628 4.40744 9.87801 5.23544C9.78201 5.39824 9.72922 5.43546 9.42204 5.52849C8.72129 5.74712 7.99174 6.33789 7.57897 7.01238C7.27659 7.51476 7.1374 8.01715 7.1086 8.68699L7.0798 9.25449L6.80622 9.46847C6.27345 9.86852 5.79829 10.636 5.6351 11.3385C5.5391 11.7664 5.5343 12.5293 5.6351 13.027L5.70709 13.4085L5.41431 13.6829C4.69436 14.3667 4.28639 15.1342 4.1616 16.0413C4.0704 16.7065 4.1376 17.2042 4.46398 18.2369C4.50717 18.3811 4.48318 18.4974 4.1952 19.3533C4.02241 19.879 3.87842 20.3255 3.87842 20.3488C3.87842 20.3674 4.1616 20.3674 4.50717 20.3488L5.13593 20.3162L5.10233 20.4279C5.08314 20.4883 4.93435 20.8 4.78076 21.121C4.62237 21.4419 4.37758 21.9536 4.23359 22.256L3.96961 22.8095L4.05121 23.0654C4.25759 23.7538 4.83835 24.5725 5.45751 25.047L5.73589 25.2563L5.76469 25.8052C5.78389 26.1448 5.83188 26.4843 5.89428 26.6937C6.29265 28.0613 7.58376 29.294 9.00927 29.6754C9.20605 29.7266 9.36924 29.7777 9.37404 29.7824C9.38364 29.7917 9.45564 29.9312 9.54203 30.0987C10.0268 31.0384 10.8619 31.6617 11.9803 31.9175C12.3306 32.0013 12.4938 32.0106 12.9738 31.9919C13.641 31.964 13.9769 31.885 14.5097 31.6338C15.1816 31.3175 15.7 30.829 15.8296 30.3871C15.8632 30.2708 15.8776 26.0983 15.8776 17.7717V5.32847L15.7624 5.09589C15.5368 4.62606 14.8985 4.09112 14.2601 3.83993C13.6841 3.61665 12.8874 3.53292 12.2682 3.6306ZM13.8233 4.52373C14.2457 4.67723 14.5817 4.89121 14.8457 5.17496L15.0617 5.40755V15.7762V26.1448H13.7081H12.3498L11.5339 25.2144C11.0875 24.7028 10.7084 24.2608 10.6892 24.2283C10.67 24.1911 10.7803 23.8794 10.9387 23.5166C11.2411 22.8235 11.2603 22.6932 11.0539 22.6002C10.8523 22.5118 10.7467 22.6328 10.4588 23.3119L10.19 23.9352L8.95167 23.9492L7.71336 23.9585L7.0606 24.3585C6.32145 24.8097 6.43184 24.8051 5.89908 24.3771C5.42391 23.9957 4.93435 23.2468 4.79036 22.6979C4.73756 22.4932 4.73756 22.4932 5.36632 21.2279C5.70709 20.5348 5.99027 19.9348 5.99027 19.8976C5.99027 19.8417 5.89428 19.8371 5.41911 19.8557L4.85275 19.879L5.02554 19.358C5.12153 19.0696 5.21753 18.8323 5.24152 18.8323C5.26072 18.8323 5.50071 19.0835 5.76949 19.3859C6.52304 20.2418 6.66223 20.4092 6.66223 20.4651C6.66223 20.493 6.52784 20.7767 6.36465 21.0977C6.10067 21.6094 6.04787 21.6792 5.94228 21.6792C5.5583 21.6838 5.36152 22.242 5.6495 22.5211C5.76469 22.6328 5.83188 22.656 6.01427 22.656C6.19666 22.656 6.26385 22.6328 6.37905 22.5211C6.49424 22.4095 6.51824 22.3443 6.51824 22.1629C6.51824 21.9908 6.58063 21.8234 6.82062 21.3535L7.1182 20.7628L7.32938 20.7302C7.44457 20.7163 8.29412 20.7023 9.21085 20.7023H10.8859L11.7211 21.6512L12.561 22.6002L12.5322 22.8653C12.5082 23.0747 12.5226 23.1677 12.5898 23.2933C12.7722 23.6189 13.2234 23.7352 13.5594 23.5352C13.7657 23.4096 13.8617 23.2282 13.8617 22.963C13.8617 22.6281 13.5402 22.3304 13.1706 22.3304C13.017 22.3304 12.9594 22.2792 12.2202 21.4419C11.7931 20.9535 11.4235 20.5302 11.4043 20.4976C11.3851 20.4651 11.6827 20.1255 12.1387 19.6603L12.9018 18.8742L13.1562 18.8695C13.7033 18.8602 14.0105 18.3951 13.7849 17.9299C13.5594 17.474 12.9066 17.4182 12.5946 17.8322C12.5178 17.9299 12.4938 18.0369 12.4938 18.2416V18.516L11.7115 19.3301L10.9291 20.1441H9.01887H7.1134L7.003 19.9999C6.83982 19.7906 5.79829 18.623 5.51511 18.3392C5.30872 18.1299 5.25592 18.0369 5.15513 17.7113C4.91035 16.9205 4.87675 16.4274 5.03034 15.8459C5.16953 15.3156 5.46711 14.7993 5.87028 14.3853L6.22066 14.0271L7.21899 14.0411C7.80935 14.0504 8.22692 14.0736 8.23652 14.1016C8.26052 14.1667 8.5101 14.283 8.62529 14.283C8.89408 14.283 9.11006 14.055 9.11006 13.7666C9.11006 13.6643 9.06206 13.5759 8.94687 13.4643C8.74529 13.2689 8.5533 13.2549 8.35171 13.4224C8.21252 13.5387 8.19332 13.5387 7.37258 13.5387H6.54224L6.45584 13.0828C6.40785 12.8363 6.35985 12.4828 6.34545 12.306C6.28305 11.5943 6.62383 10.7384 7.17099 10.2081C7.33898 10.0453 7.49737 9.91038 7.52137 9.91038C7.54537 9.91038 7.88614 10.0965 8.27972 10.3244C8.67329 10.5477 9.31165 10.9058 9.70042 11.1198L10.406 11.5013V12.4316C10.406 12.9805 10.4252 13.3945 10.454 13.4503C10.5116 13.5527 10.8091 13.5759 10.8715 13.4782C10.8907 13.4503 10.9195 12.9851 10.9339 12.4502L10.9579 11.4734L11.6443 11.0593L12.3258 10.6453L12.5034 10.7244C12.7098 10.8175 13.0314 10.7989 13.2186 10.6779C13.3914 10.5709 13.545 10.222 13.5114 10.0174C13.4538 9.67315 13.1706 9.44521 12.8058 9.44521C12.4266 9.44521 12.1867 9.65919 12.1099 10.0639C12.0907 10.1569 12.0619 10.236 12.0427 10.236C12.0283 10.236 11.7067 10.4221 11.3275 10.65L10.6412 11.0687L9.43164 10.3895C8.76448 10.0174 8.15013 9.66384 8.05893 9.60337L7.90054 9.50103L7.90534 8.96144C7.91494 8.33811 7.98694 8.0218 8.22692 7.54267C8.42371 7.15658 8.89408 6.65885 9.25405 6.45883C9.63802 6.24485 9.61883 6.2309 9.87801 6.94261C10.0556 7.43103 10.1036 7.6264 10.0844 7.7613C10.022 8.22647 10.5212 8.49627 10.8475 8.17995C10.9339 8.09622 11.0587 8.06831 11.6107 8.00784L12.2682 7.93807L12.897 8.50557C13.257 8.83119 13.5642 9.07308 13.617 9.07308C13.6697 9.07308 13.7465 9.04052 13.7849 8.99865C13.9481 8.84515 13.8809 8.73816 13.2378 8.14274L12.6138 7.56128V7.00773C12.6138 6.48674 12.6186 6.45418 12.729 6.37045C13.137 6.05878 12.897 5.44476 12.369 5.44476C12.1435 5.44476 11.9611 5.58431 11.8891 5.8169C11.8219 6.03553 11.8603 6.21229 12.0187 6.35184C12.1339 6.45418 12.1387 6.47744 12.1243 6.96121L12.1099 7.46825L11.5291 7.52872L10.9483 7.58919L10.7611 7.46825C10.5308 7.31474 10.5356 7.32404 10.31 6.67281L10.1228 6.14252L10.2524 6.08669C10.3292 6.04948 10.4348 5.90993 10.5452 5.70526C10.8475 5.11914 11.5147 4.61676 12.2106 4.44465C12.6378 4.34231 13.4106 4.37953 13.8233 4.52373ZM10.5116 24.8516C11.1067 25.4935 11.8459 26.3401 11.8459 26.3774C11.8459 26.396 11.5099 26.6239 11.0971 26.8844L10.3436 27.3589L9.9788 27.0193C9.78201 26.8332 9.58043 26.6053 9.53723 26.5123C9.37404 26.1634 8.98047 26.075 8.72129 26.3262C8.37571 26.6658 8.72609 27.2565 9.19645 27.1263C9.33085 27.0891 9.35964 27.1077 9.68602 27.424L10.0364 27.7682L9.80601 28.3869C9.68122 28.7265 9.57083 29.0149 9.56123 29.0242C9.53243 29.0567 9.01407 28.866 8.63009 28.6753C7.67496 28.1962 6.93101 27.3403 6.68623 26.4471C6.59023 26.089 6.54224 25.3912 6.59983 25.2842C6.62863 25.2377 6.92621 25.0377 7.26699 24.8377L7.88614 24.4748H9.02367L10.1564 24.4702L10.5116 24.8516ZM15.0617 28.4381V30.1731L14.9417 30.3359C14.5433 30.8523 13.6793 31.2151 12.8298 31.2151C11.6875 31.2151 10.7323 30.6569 10.262 29.708C10.022 29.2335 10.0172 29.3358 10.3676 28.3869L10.5788 27.8147L11.2267 27.4193C11.5819 27.2007 11.9659 26.9495 12.0859 26.8658L12.3018 26.7076H13.6841L15.0617 26.703V28.4381Z" fill="#00A6B2"/>
<path d="M12.9019 13.1154C12.6667 13.2364 12.5467 13.455 12.5515 13.7434L12.5563 13.9806L11.0636 15.4319L9.56615 16.8879H8.87979H8.19344L8.07345 16.7484C7.72307 16.3483 7.06072 16.5716 7.01272 17.1066C6.95992 17.6834 7.62708 17.9764 8.03505 17.5578L8.19344 17.3996H8.98059H9.77253L11.3708 15.8739L12.9643 14.3528L13.2091 14.3481C13.6603 14.3435 13.9146 14.1109 13.9194 13.7015C13.929 13.3294 13.6219 13.027 13.2379 13.027C13.1467 13.027 12.9931 13.0642 12.9019 13.1154Z" fill="#00A6B2"/>
<path d="M19.6787 13.1201C19.0499 13.4922 19.3619 14.4458 20.0866 14.3574C20.2834 14.3341 20.2882 14.3388 20.6626 14.7063C20.869 14.9156 21.5889 15.6041 22.2705 16.2413L23.4992 17.3996H24.3199C25.0879 17.3996 25.1407 17.4043 25.1887 17.4926C25.3327 17.7531 25.8078 17.7904 26.0574 17.5578C26.3454 17.2926 26.3406 16.9205 26.0478 16.6833C25.7646 16.4507 25.4383 16.4879 25.1839 16.7809L25.0687 16.9112L24.3823 16.8972L23.696 16.8786L22.1937 15.4459L20.6914 14.0085L20.7106 13.762C20.725 13.5713 20.7058 13.4829 20.6338 13.3619C20.4994 13.1619 20.2642 13.027 20.029 13.027C19.9234 13.027 19.7699 13.0689 19.6787 13.1201Z" fill="#00A6B2"/>
<path d="M2.93306 14.8784C2.90426 14.9482 2.68828 15.4552 2.44829 16.0041C2.21311 16.553 1.78594 17.5485 1.50276 18.2137C1.21958 18.8789 0.778007 19.9022 0.518825 20.493C0.264442 21.0791 0.0388579 21.6094 0.0196592 21.6652C-0.0235378 21.7955 -0.153129 21.7955 1.71874 21.6792C2.52029 21.6327 3.18744 21.6001 3.20184 21.6094C3.21144 21.6234 3.05305 22.0885 2.85147 22.6421C1.92033 25.1726 0.322039 29.6894 0.346037 29.7173C0.374835 29.7452 0.403633 29.6894 1.19078 28.0055C2.54429 25.1168 4.47855 20.8419 4.44016 20.8186C4.43536 20.8093 3.773 20.8465 2.97626 20.8977C2.17471 20.9489 1.51236 20.9814 1.50276 20.9721C1.49316 20.9628 1.52676 20.8093 1.57475 20.6326C1.75714 19.9302 2.72667 16.0367 2.87066 15.432C3.01945 14.804 3.03865 14.6226 2.93306 14.8784Z" fill="#00A6B2"/>
</svg>
